<svg fill="none" height="502" viewBox="0 0 521 502" width="521" xmlns="http://www.w3.org/2000/svg" xmlns:xlink="http://www.w3.org/1999/xlink"><linearGradient id="a" gradientUnits="userSpaceOnUse" x1="406.523" x2="463.629" y1="151.241" y2="151.241"><stop offset="0" stop-color="#87d6f4"/><stop offset="1" stop-color="#3abeef"/></linearGradient><linearGradient id="b"><stop offset="0" stop-color="#cdcbf7"/><stop offset=".485768" stop-color="#d8d0f5"/><stop offset="1" stop-color="#e7d7f7"/></linearGradient><linearGradient id="c" gradientUnits="userSpaceOnUse" x1="305.767" x2="524.85" xlink:href="#b" y1="280.668" y2="234.123"/><linearGradient id="d"><stop offset="0" stop-color="#00c7c5"/><stop offset=".0916" stop-color="#09beca"/><stop offset=".2403" stop-color="#21a7d9"/><stop offset=".4266" stop-color="#4881f1"/><stop offset=".4697" stop-color="#5277f7"/><stop offset=".7929" stop-color="#836df3"/><stop offset="1" stop-color="#bb6df3"/></linearGradient><linearGradient id="e" gradientUnits="userSpaceOnUse" x1="37.6221" x2="459.682" xlink:href="#d" y1="278.132" y2="355.859"/><linearGradient id="f" gradientUnits="userSpaceOnUse" x1="-38.5872" x2="484.011" xlink:href="#d" y1="270.87" y2="423.877"/><linearGradient id="g" gradientUnits="userSpaceOnUse" x1="228.211" x2="705.464" y1="348.31" y2="595.219"><stop offset=".0051" stop-color="#273b98"/><stop offset=".2274" stop-color="#2f2ba2"/><stop offset=".399" stop-color="#361cac"/><stop offset=".768" stop-color="#440b89"/><stop offset="1" stop-color="#4e0070"/></linearGradient><linearGradient id="h" gradientUnits="userSpaceOnUse" x1="90.9446" x2="424.294" xlink:href="#b" y1="468.612" y2="329.791"/><linearGradient id="i"><stop offset="0" stop-color="#f2f2ff"/><stop offset=".485661" stop-color="#fafafe"/><stop offset="1" stop-color="#e8e8ff"/></linearGradient><linearGradient id="j" gradientUnits="userSpaceOnUse" x1="449.04" x2="88.1035" xlink:href="#i" y1="323.827" y2="323.827"/><linearGradient id="k"><stop offset="0" stop-color="#8c6fdc"/><stop offset="1" stop-color="#8c6edd"/></linearGradient><linearGradient id="l" gradientUnits="userSpaceOnUse" x1="167.104" x2="167.104" xlink:href="#k" y1="237" y2="381"/><linearGradient id="m" gradientUnits="userSpaceOnUse" x1="457.902" x2="225.104" xlink:href="#i" y1="180.051" y2="180.051"/><linearGradient id="n" gradientUnits="userSpaceOnUse" x1="233.104" x2="233.104" xlink:href="#k" y1="22" y2="329"/><linearGradient id="o"><stop offset="0" stop-color="#fff"/><stop offset="1" stop-color="#cdcbf7"/></linearGradient><linearGradient id="p" gradientUnits="userSpaceOnUse" x1="321.655" x2="349.538" xlink:href="#o" y1="194.721" y2="201.762"/><linearGradient id="q" gradientUnits="userSpaceOnUse" x1="270.878" x2="359.895" xlink:href="#o" y1="209.889" y2="244.233"/><linearGradient id="r" gradientUnits="userSpaceOnUse" x1="230.951" x2="477.684" xlink:href="#b" y1="386.531" y2="343"/><path clip-rule="evenodd" d="m461.994 230.41c1.157-.006 2.094-.943 2.1-2.1v-44.44c0-.751-.4-1.445-1.05-1.82l-53.42-30.84c-.303-.18-.648-.28-1-.29-1.158.005-2.095.942-2.1 2.1v44.5c-.01.737.37 1.425 1 1.81l53.42 30.79c.318.188.68.288 1.05.29z" fill="url(#a)" fill-opacity=".1" fill-rule="evenodd"/><path clip-rule="evenodd" d="m304.104 0 14.048.362805 201.952 121.200195v117.743l-7.025 5.091v-117.743z" fill="url(#c)" fill-rule="evenodd"/><path d="m402.306 160.704-91.405-56.115c-3.753-2.305-6.797-8.3056-6.797-13.4027v-64.122c0-5.0972 3.042-7.3632 6.797-5.0576l91.405 56.115c3.753 2.3056 6.798 8.306 6.798 13.4031v64.1222c-.003 5.099-3.045 7.363-6.798 5.057z" fill="url(#e)" opacity=".8"/><path d="m506.371 222.281-90.535-55.61c-3.717-2.285-6.732-7.66-6.732-12.009v-66.096c0-4.3493 3.013-6.0212 6.732-3.7386l90.535 55.6096c3.717 2.285 6.733 7.66 6.733 12.009v66.096c-.003 4.349-3.016 6.024-6.733 3.739z" fill="url(#f)" opacity=".8"/><path clip-rule="evenodd" d="m304.104 0v6.9375l4.951 2.99096v10.31514l-4.951-2.991v83.5934l4.951 2.991v10.317l-4.951-2.993v6.938l209 126.298v-118.098zm183.372 117.748 5.878 3.552v10.315l-5.878-3.552zm-9.482-5.73-5.878-3.552v10.315l5.878 3.552zm-21.234-12.8322 5.878 3.5522v10.315l-5.878-3.552zm-9.481-5.73-5.878-3.5522v10.3154l5.878 3.552zm-21.236-12.8323 5.88 3.5523v10.3151l-5.88-3.5523zm-9.478-5.728-5.88-3.5522v10.3151l5.88 3.5522zm-21.239-12.8325 5.88 3.5522v10.3152l-5.88-3.5504zm-9.481-5.7298-5.878-3.5522v10.3151l5.878 3.5522zm-21.237-12.8325 5.878 3.5522v10.3151l-5.878-3.5522zm-9.48-5.7278-5.878-3.5522v10.3151l5.878 3.5522zm-21.234-12.8344 5.878 3.5522v10.3152l-5.878-3.5522zm-9.481-5.7299-5.88-3.5504v10.3132l5.88 3.5523zm0 104.2264-5.88-3.553v-10.315l5.88 3.552zm9.479 5.729 5.878 3.552v-10.315l-5.878-3.552zm21.236 12.833-5.878-3.552v-10.316l5.878 3.553zm9.48 5.728 5.878 3.552v-10.315l-5.878-3.553zm21.237 12.834-5.878-3.552v-10.315l5.878 3.552zm9.479 5.728 5.88 3.552v-10.315l-5.88-3.552zm7.374-19.904c0 4.412-2.679 6.372-5.982 4.375l-80.444-48.61c-3.303-1.995-5.982-7.1928-5.982-11.6051v-55.5076c0-4.4124 2.679-6.3728 5.982-4.3756l80.444 48.6103c3.303 1.9953 5.982 7.1926 5.982 11.605zm7.985 29.184 5.88 3.552v-10.315l-5.88-3.552zm21.238 12.834-5.88-3.552v-10.315l5.88 3.552zm9.48 5.728 5.878 3.553v-10.316l-5.878-3.552zm21.237 12.833-5.878-3.552v-10.316l5.878 3.553zm9.48 5.73 5.878 3.552v-10.315l-5.878-3.552zm21.236 12.832-5.878-3.552v-10.317l5.878 3.552zm-78.969-70.964c0 3.799 2.679 8.495 5.982 10.492l80.442 48.61c3.305 1.996 5.982.536 5.982-3.263v-57.734c0-3.799-2.677-8.495-5.982-10.493l-80.442-48.6099c-3.304-1.9954-5.982-.5343-5.982 3.263zm94.328 80.244-5.878-3.552v-10.315l5.878 3.552zm-5.878-97.461 5.878 3.553v-10.316l-5.878-3.552z" fill="url(#g)" fill-rule="evenodd"/><path d="m350.253 489.074c-57.859 15.5-122.288 15.902-180.58 1.141-15.753-3.97-31.066-9.039-45.717-15.242 0 0-.012-.043-.066-.043-16.27-6.856-31.6974-15.163-45.8854-24.805-.4633-.294-.9386-.617-1.426-.948-23.4781-16.182-41.4988-34.712-54.0261-54.499-25.86228-40.793-28.45529-86.901-7.7459-128.678" stroke="#e0d4f7" stroke-dasharray="2 2"/><path d="m315 458.459c-46.22 12.4-97.69 12.722-144.256.913-12.584-3.176-24.817-7.231-36.521-12.193 0 0-.01-.035-.053-.035-12.997-5.485-25.321-12.13-36.655-19.844-.3702-.235-.7499-.494-1.1392-.758-18.7554-12.946-33.1513-27.77-43.1586-43.6-20.6601-32.634-22.7315-69.52-6.1878-102.942" stroke="#e0d4f7" stroke-dasharray="2 2"/><path d="m273 418.91c-29.488 7.915-62.325 8.12-92.034.583-8.029-2.027-15.833-4.616-23.3-7.783 0 0-.006-.022-.034-.022-8.292-3.501-16.155-7.743-23.386-12.667-.236-.15-.478-.315-.727-.484-11.966-8.263-21.15-17.725-27.535-27.829-13.1805-20.83-14.5021-44.375-3.947-65.708" stroke="#e0d4f7" stroke-dasharray="2 2"/><path d="m206.037 231.529c7.053-3.848 15.025-5.697 23.054-5.349 3.159.147 6.291.645 9.339 1.487 3.218.992 6.33 2.303 9.287 3.914l200.493 115.614c6.884 3.979 9.783 10.267 8.49 16.816-.414 1.746-1.014 3.443-1.789 5.062-1.646 3.914-8.19 9.758-12.735 12.381l-110.2 63.547c-1.149.665-3.487 1.878-4.754 2.413-5.497 2.327-11.39 3.58-17.359 3.692-6.385.271-12.726-1.171-18.364-4.174l-202.7798-116.971c-6.9357-3.992-9.77-10.346-8.3725-16.96.3765-1.495.8745-2.956 1.4891-4.37 1.5804-4.084 8.4377-10.437 13.2051-13.125z" fill="#8f92cb" fill-opacity=".2" opacity=".39"/><g clip-rule="evenodd" fill-rule="evenodd"><path d="m300.201 433.813-206.5891-119.27c-3.6457-2.101-5.4552-4.894-5.5084-7.834v-10.228c.0665-3.578 2.661 2.66 7.7835-.32l117.258-67.661c9.421-5.44 23.67-6.026 31.826-1.33l206.59 119.296c2.727 1.582 4.71-5.095 5.415-2.98.226.718.08 10.069.093 10.8.08 3.658-2.554 7.542-7.783 10.561l-117.259 67.662c-9.42 5.427-23.67 6.025-31.826 1.304z" fill="url(#h)"/><path d="m300.22 424.826-206.5998-119.266c-8.1698-4.709-7.1452-12.944 2.2753-18.372l117.2645-67.687c9.42-5.442 23.671-6.027 31.827-1.331l206.6 119.252c8.17 4.71 7.145 12.944-2.275 18.385l-117.265 67.675c-9.42 5.454-23.671 6.053-31.827 1.344z" fill="url(#j)"/><path d="m336.914 379.687-167.552-96.893c-3.349-1.929-2.923-5.323.943-7.559l62.902-36.388c3.88-2.236 9.74-2.476 13.088-.533l167.539 96.893c3.362 1.93 2.937 5.324-.93 7.56l-62.902 36.374c-3.933 2.249-9.793 2.489-13.088.546z" fill="url(#l)"/><path d="m246.911 253.653-10.75-6.221c-.6-.213-1.001-.781-1.001-1.419 0-.637.401-1.206 1.001-1.419 1.55-.792 3.386-.792 4.936 0l10.75 6.208c.609.208 1.02.781 1.02 1.426s-.411 1.218-1.02 1.425c-1.552.786-3.385.786-4.936 0zm12.745 7.381-5.082-2.944v-.014c-1.37-.799-1.383-2.065-.013-2.837 1.552-.786 3.384-.786 4.936 0l5.095 2.944c1.331.799 1.331 2.065 0 2.851-1.551.786-3.384.786-4.936 0zm7.664 4.423 5.096 2.944c1.551.786 3.384.786 4.935 0 1.331-.786 1.331-2.065 0-2.864l-5.082-2.944c-1.552-.786-3.384-.786-4.936 0-.61.204-1.023.775-1.026 1.42s.404 1.22 1.013 1.431zm17.84 10.258-5.095-2.891v-.013c-.642-.187-1.083-.776-1.083-1.446 0-.669.441-1.258 1.083-1.445 1.55-.793 3.386-.793 4.936 0l5.095 2.944c.61.207 1.02.781 1.02 1.426 0 .644-.41 1.218-1.02 1.425-1.551.786-3.384.786-4.936 0zm7.65 4.476 5.095 2.945c1.551.792 3.386.792 4.936 0 .61-.208 1.02-.781 1.02-1.426s-.41-1.218-1.02-1.425l-5.042-2.945c-1.552-.785-3.384-.785-4.936 0-.604.202-1.016.763-1.028 1.4-.012.638.379 1.214.975 1.438zm17.841 10.325-5.095-2.944v-.014c-1.357-.799-1.37-2.078 0-2.837 1.552-.786 3.384-.786 4.936 0l5.095 2.944c.61.207 1.02.781 1.02 1.425 0 .645-.41 1.219-1.02 1.426-1.551.786-3.384.786-4.936 0zm7.664 4.423 5.082 2.944c1.552.786 3.384.786 4.936 0 1.33-.786 1.33-2.051 0-2.851l-5.096-2.944c-1.551-.786-3.384-.786-4.936 0-1.37.773-1.357 2.038.014 2.838zm17.827 10.365-5.082-2.944c-1.331-.853-1.331-2.132 0-2.865 1.547-.785 3.375-.785 4.922 0l5.096 2.944c1.33.8 1.33 2.079 0 2.865-1.552.786-3.385.786-4.936 0zm7.663 4.423 5.095 2.944c1.552.786 3.384.786 4.936 0 1.33-.786 1.33-2.065 0-2.851l-5.082-2.944c-1.55-.793-3.386-.793-4.936 0-.565.229-.935.777-.938 1.387-.003.611.362 1.162.925 1.397zm17.841 10.311-5.096-2.944v-.08c-.555-.236-.915-.782-.915-1.386 0-.603.36-1.149.915-1.385 1.552-.786 3.384-.786 4.936 0l5.095 2.944c.61.208 1.02.781 1.02 1.426s-.41 1.218-1.02 1.425c-1.55.792-3.385.792-4.935 0zm7.65 4.436 5.095 2.945c1.552.786 3.384.786 4.936 0 .61-.208 1.02-.781 1.02-1.426s-.41-1.218-1.02-1.425l-5.096-2.945c-1.551-.785-3.384-.785-4.935 0-.553.242-.911.789-.911 1.393s.358 1.15.911 1.392zm17.84 10.312-5.095-2.944v-.067c-1.357-.799-1.371-2.065-.04-2.851 1.551-.786 3.384-.786 4.935 0l5.136 3.011c1.33.799 1.33 2.065 0 2.851-1.552.786-3.384.786-4.936 0zm7.93 4.583 5.082 2.931c1.55.792 3.385.792 4.936 0 .609-.208 1.02-.781 1.02-1.426s-.411-1.218-1.02-1.425l-5.096-2.945c-1.552-.785-3.384-.785-4.936 0-1.37.72-1.357 1.999.014 2.798zm-165.956-82.412-4.417-2.558c-.663-.238-1.112-.862-1.126-1.569-.015-.706.407-1.348 1.06-1.615l4.443-2.584c1.77-.893 3.858-.893 5.628 0l4.404 2.544c.693.239 1.158.892 1.158 1.626s-.465 1.387-1.158 1.625l-4.377 2.531c-1.766.893-3.849.893-5.615 0zm18.36 7.381 4.377-2.545c1.557-.892 1.543-2.344 0-3.237l-4.404-2.558c-1.765-.893-3.849-.893-5.614 0l-4.39 2.531c-1.544.893-1.53 2.345 0 3.238l4.403 2.558c1.759.918 3.849.943 5.628.066zm7.131 7.354-4.404-2.545v.053c-1.556-.905-1.623-2.358 0-3.303l4.391-2.532c1.763-.899 3.85-.899 5.614 0l4.404 2.545c.693.238 1.158.891 1.158 1.625s-.465 1.387-1.158 1.625l-4.391 2.532c-1.765.893-3.849.893-5.614 0zm8.341 4.822 4.404 2.545c1.764.899 3.851.899 5.614 0l4.391-2.531c1.543-.893 1.53-2.345 0-3.251l-4.404-2.544c-1.764-.9-3.851-.9-5.614 0l-4.377 2.531c-1.584.946-1.57 2.451-.014 3.304zm22.724 1.599 4.417 2.545v.053c.655.259 1.086.893 1.086 1.598 0 .706-.431 1.34-1.086 1.599l-4.378 2.531c-1.768.9-3.859.9-5.627 0l-4.404-2.544c-.693-.239-1.158-.892-1.158-1.626 0-.733.465-1.386 1.158-1.625l4.377-2.531c1.764-.899 3.851-.899 5.615 0zm17.162 9.912-4.417-2.545c-1.765-.893-3.849-.893-5.614 0l-4.311 2.585c-.696.231-1.167.883-1.167 1.618s.471 1.388 1.167 1.619l4.417 2.558c1.766.893 3.85.893 5.615 0l4.377-2.531c.688-.253 1.141-.915 1.126-1.649-.015-.735-.494-1.378-1.193-1.602zm8.342 4.822 4.404 2.558v.054c1.556.892 1.569 2.344 0 3.17l-4.377 2.545c-1.766.893-3.85.893-5.615 0l-4.417-2.558c-.697-.231-1.167-.884-1.167-1.619s.47-1.387 1.167-1.618l4.377-2.532c1.77-.893 3.858-.893 5.628 0zm17.149 9.925-4.404-2.544c-1.764-.899-3.851-.899-5.614 0l-4.391 2.531c-1.543.893-1.53 2.345 0 3.251l4.404 2.544c1.764.9 3.851.9 5.614 0l4.377-2.531c.657-.256 1.09-.888 1.093-1.594s-.425-1.342-1.079-1.603zm8.342 4.916 4.403 2.452v.053c1.557.906 1.57 2.358.014 3.291l-4.391 2.531c-1.764.899-3.85.899-5.614 0l-4.404-2.545c-1.543-.906-1.556-2.358 0-3.25l4.377-2.532c1.764-.899 3.851-.899 5.615 0zm17.162 9.819-4.417-2.545c-1.764-.899-3.851-.899-5.614 0l-4.377 2.532c-.694.238-1.159.891-1.159 1.625s.465 1.387 1.159 1.625l4.403 2.545c1.769.899 3.859.899 5.628 0l4.377-2.531c.655-.259 1.086-.893 1.086-1.599s-.431-1.34-1.086-1.599zm2.767 13.149-4.417-2.558v.053c-.719-.214-1.213-.875-1.216-1.627-.003-.751.485-1.416 1.203-1.636l4.377-2.545c1.765-.893 3.849-.893 5.614 0l4.43 2.545c.697.231 1.167.883 1.167 1.618s-.47 1.388-1.167 1.619l-4.377 2.531c-1.765.893-3.849.893-5.614 0zm22.723 1.599-4.35-2.505c-1.77-.893-3.858-.893-5.628 0l-4.377 2.531c-.693.239-1.158.892-1.158 1.626 0 .733.465 1.386 1.158 1.625l4.417 2.544c1.766.893 3.849.893 5.615 0l4.377-2.544c.683-.249 1.133-.904 1.121-1.631-.012-.728-.484-1.367-1.175-1.593zm8.568 4.969 10.058 5.822.04.053c.653.264 1.079.902 1.073 1.608-.006.705-.442 1.336-1.1 1.589l-4.39 2.531c-1.764.9-3.851.9-5.614 0l-10.072-5.821c-.693-.239-1.158-.892-1.158-1.626s.465-1.387 1.158-1.625l4.377-2.531c1.77-.893 3.858-.893 5.628 0zm-174.989-75.937 10.071 5.809c1.764.899 3.851.899 5.615 0l4.377-2.532c.693-.238 1.158-.891 1.158-1.625s-.465-1.387-1.158-1.625l-10.071-5.809c-1.764-.899-3.851-.899-5.615 0l-4.377 2.532c-1.57.892-1.57 2.344 0 3.25zm22.817 13.216-4.417-2.558-.013-.027c-.676-.245-1.125-.89-1.122-1.61s.458-1.36 1.135-1.6l4.378-2.532c1.768-.899 3.859-.899 5.627 0l4.404 2.558c.697.231 1.167.884 1.167 1.619s-.47 1.387-1.167 1.619l-4.377 2.531c-1.764.899-3.851.899-5.615 0zm12.745 7.367c1.765.893 3.849.893 5.615 0l4.377-2.531c.693-.239 1.158-.892 1.158-1.626s-.465-1.386-1.158-1.625l-4.404-2.558c-1.765-.893-3.849-.893-5.614 0l-4.391 2.531c-1.543.893-1.53 2.345 0 3.251zm18.36 7.367c-1.764.899-3.851.899-5.614 0l-4.404-2.544c-1.53-.906-1.543-2.358 0-3.251l4.39-2.531c1.764-.9 3.851-.9 5.615 0l4.403 2.544c1.53.906 1.544 2.358 0 3.251zm7.091-.959-4.377 2.531c-1.557.893-1.544 2.345 0 3.251l4.403 2.544c1.764.9 3.851.9 5.615 0l4.39-2.531c1.543-.892 1.53-2.345 0-3.25l-4.404-2.545c-1.777-.93-3.895-.94-5.68-.027zm8.103 10.085 4.909-2.865v-.026c1.603-.799 3.491-.785 5.082.04l4.949 2.864c.629.211 1.054.801 1.054 1.466 0 .664-.425 1.254-1.054 1.465l-4.922 2.851c-1.592.814-3.477.814-5.069 0l-4.949-2.864c-1.397-.813-1.41-2.119 0-2.931zm17.654 4.503-4.909 2.838c-.626.218-1.045.808-1.045 1.472 0 .663.419 1.254 1.045 1.472l4.949 2.851c1.597.811 3.485.811 5.082 0l4.909-2.838c.626-.218 1.045-.809 1.045-1.472s-.419-1.254-1.045-1.472l-4.949-2.851c-1.592-.82-3.48-.83-5.082-.027zm7.836 10.218 4.922-2.851.014-.027c1.594-.796 3.473-.782 5.055.04l4.949 2.864c1.397.813 1.41 2.119 0 2.931l-4.909 2.838c-1.597.812-3.485.812-5.082 0l-4.949-2.864c-.63-.211-1.054-.801-1.054-1.466 0-.664.424-1.254 1.054-1.465zm17.668 4.516-4.922 2.851c-1.397.799-1.331 2.118 0 2.931l4.949 2.864c1.598.806 3.483.806 5.082 0l4.922-2.851c1.397-.812 1.331-2.118 0-2.931l-4.949-2.864c-1.593-.818-3.48-.828-5.082-.027zm7.823 10.218 4.922-2.851v.04c1.61-.818 3.513-.818 5.123 0l4.909 2.825c1.33.812 1.397 2.131 0 2.931l-4.923 2.851c-1.594.805-3.475.805-5.069 0l-4.962-2.865c-.629-.211-1.053-.801-1.053-1.465 0-.665.424-1.255 1.053-1.466zm22.789 13.136 4.923-2.851c.629-.211 1.053-.801 1.053-1.465 0-.665-.424-1.255-1.053-1.466l-4.949-2.864c-1.598-.812-3.486-.812-5.083 0l-4.922 2.838c-1.331.812-1.331 2.118 0 2.931l4.949 2.864c1.587.835 3.478.855 5.082.053zm17.668 4.53-4.922 2.837v.014c-1.601.812-3.495.797-5.083-.04l-4.949-2.851c-.625-.218-1.045-.809-1.045-1.472 0-.664.42-1.255 1.045-1.473l4.909-2.837c1.598-.812 3.486-.812 5.083 0l4.962 2.877c.626.218 1.045.809 1.045 1.472 0 .664-.419 1.255-1.045 1.473zm12.998 4.582-4.949-2.864c-1.597-.812-3.485-.812-5.082 0l-4.909 2.838c-.63.211-1.054.801-1.054 1.465 0 .665.424 1.255 1.054 1.466l4.949 2.864c1.597.812 3.485.812 5.082 0l4.909-2.851c.61-.222 1.015-.803 1.015-1.452 0-.65-.405-1.23-1.015-1.452zm-169.667-72.872-15.964-9.246c-.629-.214-1.05-.806-1.047-1.47.003-.665.43-1.253 1.06-1.461l4.922-2.851c1.594-.805 3.475-.805 5.069 0l15.965 9.246c.629.211 1.053.801 1.053 1.465 0 .665-.424 1.255-1.053 1.466l-4.922 2.851c-1.599.805-3.484.805-5.083 0zm7.85 4.503 4.949 2.864c1.594.805 3.475.805 5.069 0l4.923-2.851c1.397-.799 1.33-2.118 0-2.931l-4.949-2.864c-1.599-.806-3.484-.806-5.083 0l-4.922 2.851c-1.437.812-1.424 2.118.013 2.931zm17.694 10.231-4.949-2.864-.027-.027c-1.41-.786-1.423-2.091.013-2.917l4.923-2.838c1.597-.812 3.485-.812 5.082 0l4.949 2.864c.63.211 1.054.801 1.054 1.466 0 .664-.424 1.254-1.054 1.465l-4.922 2.851c-1.592.814-3.477.814-5.069 0zm7.796 4.516 4.949 2.851c1.596.819 3.487.819 5.082 0l4.91-2.837c.625-.218 1.045-.809 1.045-1.472 0-.664-.42-1.254-1.045-1.473l-4.95-2.85c-1.597-.812-3.485-.812-5.082 0l-4.909 2.837c-.628.212-1.052.799-1.058 1.463-.006.663.408 1.258 1.031 1.481zm27.686 7.394-4.909 2.838h-.027c-1.587.807-3.463.812-5.055.013l-4.949-2.864c-.629-.211-1.054-.801-1.054-1.465 0-.665.425-1.255 1.054-1.466l4.922-2.851c1.592-.814 3.477-.814 5.069 0l4.949 2.864c1.397.813 1.411 2.119 0 2.931zm7.836 10.218 4.923-2.851c1.33-.812 1.33-2.118 0-2.93l-4.949-2.865c-1.594-.805-3.475-.805-5.069 0l-4.923 2.851c-1.397.8-1.33 2.119 0 2.931l4.95 2.864c1.587.792 3.454.792 5.042 0zm17.668 4.517-4.923 2.851h-.026c-1.587.796-3.456.796-5.042 0l-4.963-2.865c-.629-.21-1.053-.801-1.053-1.465s.424-1.255 1.053-1.465l4.923-2.851c1.598-.806 3.483-.806 5.082 0l4.949 2.864c1.33.813 1.397 2.131 0 2.931zm7.823 10.218 4.923-2.838c.626-.218 1.045-.809 1.045-1.472s-.419-1.254-1.045-1.472l-4.949-2.864c-1.597-.812-3.485-.812-5.082 0l-4.923 2.837c-1.397.813-1.33 2.119 0 2.931l4.949 2.865c1.586.813 3.465.818 5.056.013zm17.668 4.529-4.922 2.838h-.027c-1.612.833-3.527.828-5.135-.013l-4.949-2.864c-.626-.219-1.045-.809-1.045-1.473 0-.663.419-1.254 1.045-1.472l5.002-2.811c1.597-.811 3.485-.811 5.082 0l4.949 2.851c.626.218 1.045.809 1.045 1.472 0 .664-.419 1.254-1.045 1.472zm7.835 10.205 4.91-2.837c.629-.211 1.053-.801 1.053-1.466 0-.664-.424-1.254-1.053-1.465l-4.949-2.864c-1.592-.814-3.477-.814-5.069 0l-4.923 2.85c-.629.211-1.053.801-1.053 1.466 0 .664.424 1.254 1.053 1.465l4.949 2.865c1.592.798 3.468.793 5.056-.014zm7.611 7.367-4.949-2.864h.026c-.575-.238-.951-.798-.954-1.421s.368-1.187.941-1.43l4.922-2.851c1.594-.805 3.475-.805 5.069 0l4.949 2.785c1.331.812 1.397 2.118 0 2.93l-4.922 2.851c-1.599.806-3.484.806-5.082 0zm30.4 6.089-12.599-7.288c-1.592-.813-3.477-.813-5.069 0l-4.923 2.838c-.629.211-1.053.801-1.053 1.466 0 .664.424 1.254 1.053 1.465l12.599 7.287c1.592.814 3.477.814 5.069 0l4.923-2.837c.629-.211 1.053-.801 1.053-1.466 0-.664-.424-1.254-1.053-1.465zm-162.909-68.676-22.684-13.11v-.066c-.668-.262-1.108-.907-1.108-1.625 0-.719.44-1.364 1.108-1.626l4.258-2.464c1.803-.912 3.931-.912 5.734 0l22.683 13.109c.716.234 1.201.904 1.201 1.658 0 .755-.485 1.424-1.201 1.659l-4.257 2.465c-1.801.918-3.933.918-5.734 0zm8.462 4.889 4.283 2.491c1.803.912 3.932.912 5.735 0l4.27-2.465c.716-.234 1.201-.903 1.201-1.658s-.485-1.424-1.201-1.659l-4.284-2.478c-1.803-.912-3.931-.912-5.734 0l-4.27 2.478c-1.597.826-1.597 2.305 0 3.224zm17.029 9.858-4.284-2.478v-.066c-.677-.257-1.125-.907-1.125-1.632 0-.726.448-1.375 1.125-1.632l4.27-2.465c1.803-.912 3.932-.912 5.735 0l4.283 2.491c1.57.92 1.57 2.398 0 3.304l-4.27 2.478c-1.803.912-3.931.912-5.734 0zm8.461 4.89 4.284 2.477c1.803.912 3.931.912 5.734 0l4.271-2.464c.716-.235 1.2-.904 1.2-1.659 0-.754-.484-1.424-1.2-1.658l-4.297-2.478c-1.802-.919-3.933-.919-5.734 0l-4.258 2.464c-.668.262-1.108.907-1.108 1.626 0 .718.44 1.363 1.108 1.625zm17.042 9.845-4.297-2.478v-.067c-.668-.262-1.108-.907-1.108-1.625 0-.719.44-1.364 1.108-1.625l4.258-2.465c1.802-.912 3.931-.912 5.734 0l4.297 2.478c.716.235 1.2.904 1.2 1.658 0 .755-.484 1.424-1.2 1.659l-4.258 2.465c-1.802.912-3.931.912-5.734 0zm8.462 4.822 4.297 2.478c1.801.919 3.933.919 5.734 0l4.257-2.464c.717-.235 1.201-.904 1.201-1.659s-.484-1.424-1.201-1.659l-4.297-2.478c-1.803-.911-3.931-.911-5.734 0l-4.257 2.465c-.716.235-1.201.904-1.201 1.659 0 .754.485 1.424 1.201 1.658zm17.043 9.859-4.298-2.491h-.013c-1.583-.973-1.596-2.398.013-3.291l4.271-2.478c1.803-.912 3.931-.912 5.734 0l4.284 2.478c.716.235 1.201.904 1.201 1.659 0 .754-.485 1.423-1.201 1.658l-4.257 2.465c-1.803.912-3.931.912-5.734 0zm8.461 4.889 4.284 2.478c1.803.912 3.931.912 5.734 0l4.271-2.465c.716-.234 1.2-.904 1.2-1.658 0-.755-.484-1.424-1.2-1.659l-4.284-2.491c-1.803-.912-3.931-.912-5.734 0l-4.271 2.464c-.728.226-1.225.898-1.228 1.661s.489 1.439 1.215 1.67zm17.03 9.845-4.284-2.478h-.014c-.715-.237-1.197-.909-1.194-1.663.003-.755.491-1.422 1.208-1.654l4.27-2.465c1.802-.918 3.933-.918 5.734 0l4.284 2.478c.717.235 1.201.904 1.201 1.659s-.484 1.424-1.201 1.659l-4.27 2.464c-1.803.912-3.931.912-5.734 0zm8.461 4.889 4.284 2.478c1.803.912 3.931.912 5.734 0l4.271-2.464c.716-.235 1.2-.904 1.2-1.659s-.484-1.424-1.2-1.659l-4.324-2.464c-1.803-.912-3.931-.912-5.734 0l-4.258 2.464c-.705.244-1.177.91-1.174 1.657s.481 1.409 1.188 1.647zm17.042 9.846-4.297-2.478h-.013c-.716-.238-1.197-.909-1.194-1.664.003-.754.49-1.422 1.207-1.654l4.257-2.464c1.803-.912 3.932-.912 5.734 0l4.298 2.478c.716.234 1.2.904 1.2 1.658 0 .755-.484 1.424-1.2 1.659l-4.258 2.465c-1.801.918-3.932.918-5.734 0zm23.003 1.771-4.284-2.478c-1.801-.918-3.933-.918-5.734 0l-4.284 2.412c-.716.235-1.201.904-1.201 1.658 0 .755.485 1.424 1.201 1.659l4.284 2.478c1.803.912 3.931.912 5.734 0l4.271-2.465c.677-.257 1.125-.906 1.125-1.632 0-.725-.448-1.375-1.125-1.632zm-174.922-87.527 9.951 5.756h-.08c.712.226 1.2.88 1.215 1.628.015.747-.446 1.421-1.148 1.675l-4.257 2.465c-1.802.918-3.933.918-5.734 0l-9.952-5.742c-.716-.235-1.2-.904-1.2-1.658 0-.755.484-1.424 1.2-1.659l4.271-2.465c1.803-.912 3.931-.912 5.734 0zm22.683 13.123-4.297-2.478c-1.803-.912-3.931-.912-5.734 0l-4.257 2.464c-.717.235-1.201.904-1.201 1.659s.484 1.424 1.201 1.659l4.297 2.478c1.801.918 3.933.918 5.734 0l4.257-2.465c.717-.235 1.201-.904 1.201-1.659 0-.754-.484-1.424-1.201-1.658zm8.461 4.889 4.284 2.491h-.066c1.583.919 1.596 2.398.066 3.304l-4.257 2.465c-1.801.918-3.933.918-5.734 0l-4.297-2.478c-.717-.235-1.201-.904-1.201-1.659s.484-1.424 1.201-1.659l4.27-2.464c1.802-.918 3.933-.918 5.734 0zm93.516 54.075-80.77-46.628c-1.801-.918-3.932-.918-5.734 0l-4.27 2.465c-.716.235-1.201.904-1.201 1.658 0 .755.485 1.424 1.201 1.659l80.769 46.694c1.803.912 3.931.912 5.734 0l4.271-2.464c.77-.211 1.299-.919 1.283-1.718s-.572-1.486-1.35-1.666zm8.448 4.889 4.297 2.478-.067.014c.727.228 1.222.902 1.222 1.665s-.495 1.437-1.222 1.665l-4.27 2.465c-1.802.918-3.933.918-5.734 0l-4.284-2.478c-.716-.235-1.201-.904-1.201-1.659s.485-1.424 1.201-1.658l4.324-2.492c1.803-.912 3.931-.912 5.734 0zm17.055 9.845-4.297-2.478c-1.803-.911-3.931-.911-5.734 0l-4.257 2.478c-1.584.906-1.57 2.385 0 3.304l4.283 2.492c1.803.911 3.932.911 5.735 0l4.27-2.465c.723-.242 1.204-.927 1.189-1.69s-.524-1.427-1.255-1.641zm8.714 5.049 4.298 2.478h-.067c.721.22 1.22.88 1.235 1.635s-.457 1.434-1.168 1.683l-4.258 2.464c-1.801.919-3.932.919-5.734 0l-4.297-2.478c-.716-.234-1.201-.904-1.201-1.658 0-.755.485-1.424 1.201-1.659l4.257-2.465c1.803-.911 3.931-.911 5.734 0z" fill="#ced3f4"/><path d="m246.973 252.665-10.747-6.223c-.61-.208-1.02-.781-1.02-1.426 0-.646.41-1.219 1.02-1.426 1.551-.787 3.383-.787 4.934 0l10.747 6.21c.607.214 1.012.788 1.012 1.432 0 .645-.405 1.219-1.012 1.433-1.552.78-3.381.78-4.934 0zm12.743 7.383-5.081-2.945v-.013c-1.37-.787-1.384-2.119-.014-2.839 1.55-.793 3.385-.793 4.935 0l5.094 2.945c.61.208 1.02.781 1.02 1.426s-.41 1.219-1.02 1.426c-1.551.786-3.383.786-4.934 0zm7.661 4.425 5.094 2.945c1.55.792 3.385.792 4.934 0 1.33-.786 1.33-2.066 0-2.852l-5.107-2.932c-1.55-.793-3.385-.793-4.935 0-.589.221-.978.787-.975 1.417.003.631.397 1.193.989 1.408zm17.836 10.314-5.094-2.945v-.013c-.6-.213-1.001-.782-1.001-1.419 0-.638.401-1.206 1.001-1.42 1.551-.786 3.383-.786 4.934 0l5.095 2.946c.609.207 1.019.78 1.019 1.426 0 .645-.41 1.218-1.019 1.425-1.55.793-3.385.793-4.935 0zm7.648 4.438 5.094 2.946c1.551.786 3.383.786 4.935 0 1.33-.787 1.33-2.053 0-2.852l-5.041-2.959c-1.552-.786-3.384-.786-4.935 0-1.423.773-1.423 2.052-.053 2.852zm17.836 10.315-5.094-2.945v-.013c-.61-.208-1.02-.781-1.02-1.426s.41-1.219 1.02-1.426c1.551-.786 3.383-.786 4.935 0l5.094 2.945c.606.214 1.011.788 1.011 1.433 0 .644-.405 1.218-1.011 1.432-1.552.786-3.384.786-4.935 0zm7.661 4.425 5.081 2.945c1.552.786 3.384.786 4.935 0 .61-.208 1.02-.781 1.02-1.426s-.41-1.219-1.02-1.426l-5.094-2.945c-1.55-.793-3.385-.793-4.935 0-1.37.773-1.357 2.052.013 2.838zm17.823 10.315-5.081-2.946v-.013c-1.33-.786-1.33-2.066 0-2.838 1.545-.793 3.376-.793 4.921 0l5.095 2.945c1.33.786 1.33 2.065 0 2.852-1.55.792-3.385.792-4.935 0zm7.662 4.437 5.094 2.932c1.55.793 3.385.793 4.935 0 1.33-.786 1.33-2.065 0-2.852l-5.081-2.945c-1.551-.786-3.383-.786-4.935 0-.597.217-.997.784-1 1.421s.391 1.208.987 1.431zm17.836 10.315-5.094-2.945v-.013c-1.37-.8-1.37-2.066 0-2.839 1.551-.786 3.383-.786 4.935 0l5.094 2.945c1.33.8 1.33 2.066 0 2.852-1.551.786-3.383.786-4.935 0zm7.648 4.425 5.095 2.945c1.551.786 3.383.786 4.934 0 .606-.214 1.012-.788 1.012-1.433 0-.644-.406-1.218-1.012-1.432l-5.094-2.945c-1.551-.787-3.383-.787-4.935 0-.609.207-1.019.78-1.019 1.426 0 .645.41 1.218 1.019 1.425zm17.836 10.315-5.094-2.946v-.013c-.603-.204-1.012-.767-1.021-1.405s.384-1.212.981-1.434c1.55-.792 3.385-.792 4.935 0l5.134 2.946c.609.207 1.02.781 1.02 1.426s-.411 1.218-1.02 1.426c-1.551.786-3.383.786-4.935 0zm7.928 4.584 5.081 2.945c1.551.786 3.383.786 4.934 0 1.33-.773 1.33-2.052 0-2.852l-5.094-2.945c-1.551-.786-3.383-.786-4.935 0-1.369.76-1.356 2.092.014 2.839zm-165.914-82.333-4.416-2.545c-.703-.232-1.178-.891-1.178-1.632 0-.742.475-1.4 1.178-1.633l4.376-2.532c1.769-.893 3.857-.893 5.626 0l4.403 2.559c.693.238 1.158.891 1.158 1.626 0 .734-.465 1.387-1.158 1.625l-4.376 2.532c-1.765.894-3.848.894-5.613 0zm18.355 7.384 4.375-2.533c1.557-.892 1.543-2.345 0-3.251l-4.402-2.546c-1.763-.899-3.85-.899-5.613 0l-4.389 2.532c-1.543.893-1.53 2.346 0 3.252l4.402 2.546c1.767.904 3.86.904 5.627 0zm7.129 7.356-4.402-2.546c-1.557-.906-1.623-2.358 0-3.251l4.389-2.532c1.763-.9 3.849-.9 5.613 0l4.402 2.545c1.53.906 1.543 2.359 0 3.252l-4.389 2.532c-1.763.899-3.85.899-5.613 0zm8.34 4.824 4.402 2.559c1.765.893 3.848.893 5.613 0l4.389-2.532c1.543-.893 1.53-2.346 0-3.252l-4.402-2.545c-1.765-.894-3.848-.894-5.613 0l-4.376 2.532c-.684.241-1.143.887-1.146 1.614s.45 1.377 1.133 1.624zm22.717 1.599 4.416 2.559c.697.231 1.167.884 1.167 1.619 0 .736-.47 1.388-1.167 1.619l-4.376 2.533c-1.768.899-3.858.899-5.626 0l-4.403-2.559c-.696-.232-1.166-.884-1.166-1.619 0-.736.47-1.388 1.166-1.62l4.376-2.532c1.764-.899 3.85-.899 5.613 0zm12.742 7.383c-1.763-.899-3.849-.899-5.612 0l-4.31 2.519c-.693.239-1.158.892-1.158 1.626s.465 1.387 1.158 1.626l4.416 2.545c1.765.893 3.848.893 5.613 0l4.376-2.532c.678-.258 1.122-.916 1.107-1.643s-.485-1.366-1.174-1.595zm7.13 7.37c1.768-.9 3.858-.9 5.626 0l4.402 2.545c1.557.907 1.57 2.359 0 3.252l-4.375 2.532c-1.764.9-3.85.9-5.613 0l-4.416-2.545c-.693-.239-1.159-.892-1.159-1.626s.466-1.387 1.159-1.626zm18.368 7.37c-1.763-.9-3.85-.9-5.613 0l-4.389 2.532c-1.543.893-1.53 2.345 0 3.251l4.402 2.546c1.764.899 3.85.899 5.613 0l4.376-2.532c1.583-.826 1.57-2.346.014-3.252zm7.129 7.369c1.765-.893 3.848-.893 5.613 0l4.402 2.546c1.557.906 1.57 2.359.014 3.265l-4.39 2.532c-1.764.893-3.848.893-5.612 0l-4.403-2.559c-.693-.238-1.158-.891-1.158-1.626 0-.734.465-1.387 1.158-1.626zm18.355 7.37c-1.763-.9-3.85-.9-5.613 0l-4.376 2.532c-1.556.893-1.543 2.346 0 3.238l4.403 2.559c1.768.9 3.858.9 5.626 0l4.376-2.532c.697-.231 1.167-.884 1.167-1.619s-.47-1.388-1.167-1.619zm12.796 15.699c-1.765.893-3.849.893-5.613 0l-4.416-2.545c-.693-.239-1.158-.892-1.158-1.626s.465-1.388 1.158-1.626l4.376-2.532c1.763-.9 3.849-.9 5.613 0l4.416 2.545c.693.239 1.158.892 1.158 1.626s-.465 1.387-1.158 1.626zm12.755-.946c-1.767-.9-3.858-.9-5.626 0l-4.376 2.532c-.693.238-1.158.892-1.158 1.626s.465 1.387 1.158 1.626l4.416 2.545c1.763.9 3.85.9 5.613 0l4.376-2.532c.689-.25 1.144-.911 1.132-1.645s-.488-1.38-1.185-1.607zm12.955 7.463 10.015 5.877h.04c1.556.906 1.569 2.359.013 3.185l-4.389 2.532c-1.763.9-3.85.9-5.613 0l-10.069-5.81c-.693-.239-1.158-.892-1.158-1.626s.465-1.388 1.158-1.626l4.376-2.532c1.77-.894 3.857-.894 5.627 0zm-174.985-75.963 10.069 5.824c1.765.893 3.848.893 5.613 0l4.376-2.545c.696-.232 1.167-.884 1.167-1.619 0-.736-.471-1.388-1.167-1.62l-10.069-5.823c-1.763-.9-3.85-.9-5.613 0l-4.376 2.532c-1.569.893-1.569 2.345 0 3.251zm22.798 13.207-4.416-2.545c-.693-.239-1.158-.892-1.158-1.626s.465-1.387 1.158-1.626l4.376-2.532c1.768-.9 3.858-.9 5.626 0l4.403 2.545c.693.239 1.158.892 1.158 1.626s-.465 1.387-1.158 1.626l-4.376 2.532c-1.764.9-3.85.9-5.613 0zm12.742 7.37c1.763.899 3.85.899 5.613 0l4.376-2.532c1.556-.893 1.543-2.346 0-3.252l-4.403-2.545c-1.763-.9-3.85-.9-5.613 0l-4.389 2.532c-1.543.893-1.53 2.345 0 3.251zm18.355 7.37c-1.763.899-3.849.899-5.613 0l-4.402-2.546c-.693-.238-1.158-.892-1.158-1.626s.465-1.387 1.158-1.626l4.389-2.532c1.765-.893 3.848-.893 5.613 0l4.403 2.546c1.529.906 1.542 2.359 0 3.252zm7.089-.96-4.376 2.545c-1.556.893-1.543 2.346 0 3.239l4.403 2.559c1.765.893 3.848.893 5.613 0l4.389-2.533c1.543-.892 1.53-2.345 0-3.238l-4.403-2.559c-1.775-.919-3.882-.929-5.666-.026zm8.101 10.062 4.908-2.839.013-.013c1.597-.799 3.479-.79 5.068.026l4.947 2.866c.629.211 1.053.801 1.053 1.466 0 .664-.424 1.254-1.053 1.465l-4.921 2.839c-1.591.814-3.476.814-5.067 0l-4.948-2.865c-.626-.218-1.045-.809-1.045-1.473 0-.663.419-1.254 1.045-1.472zm17.649 4.531-4.908 2.852c-.629.211-1.053.801-1.053 1.466 0 .664.424 1.255 1.053 1.466l4.948 2.865c1.597.812 3.485.812 5.081 0l4.908-2.839c.629-.211 1.053-.801 1.053-1.466 0-.664-.424-1.255-1.053-1.466l-4.948-2.865c-1.59-.809-3.468-.819-5.067-.027zm7.835 10.221 4.921-2.852.026-.013c1.589-.792 3.457-.787 5.041.013l4.948 2.866c1.397.813 1.41 2.132 0 2.932l-4.908 2.851c-1.598.806-3.482.806-5.081 0l-4.947-2.865c-.629-.211-1.053-.801-1.053-1.466 0-.664.424-1.255 1.053-1.466zm17.663 4.531-4.921 2.839c-.629.211-1.053.801-1.053 1.466s.424 1.255 1.053 1.466l4.948 2.865c1.596.812 3.484.812 5.081 0l4.921-2.852c1.396-.799 1.33-2.119 0-2.932l-4.948-2.865c-1.592-.814-3.476-.814-5.068 0zm7.82 10.209 4.922-2.839.013-.013c1.607-.826 3.513-.826 5.121 0l4.894 2.865c.626.218 1.045.809 1.045 1.473 0 .663-.419 1.254-1.045 1.472l-4.921 2.839c-1.591.814-3.476.814-5.067 0l-4.962-2.852c-.625-.218-1.044-.809-1.044-1.473 0-.663.419-1.254 1.044-1.472zm22.785 13.153 4.921-2.838c.629-.211 1.053-.802 1.053-1.466 0-.665-.424-1.255-1.053-1.466l-4.948-2.866c-1.596-.812-3.484-.812-5.08 0l-4.922 2.839c-.625.218-1.044.809-1.044 1.473 0 .663.419 1.254 1.044 1.472l4.948 2.866c1.599.823 3.496.823 5.094 0zm17.663 4.531-4.921 2.852.013.014c-1.597.809-3.483.809-5.08 0l-4.948-2.866c-.629-.211-1.053-.801-1.053-1.466 0-.664.424-1.255 1.053-1.466l4.908-2.865c1.598-.805 3.482-.805 5.081 0l4.947 2.865c.63.211 1.054.802 1.054 1.466 0 .665-.424 1.255-1.054 1.466zm12.995 4.585-4.948-2.852c-1.597-.812-3.484-.812-5.081 0l-4.908 2.838c-.625.218-1.044.809-1.044 1.473 0 .663.419 1.254 1.044 1.472l4.948 2.866c1.597.812 3.484.812 5.081 0l4.908-2.839c.627-.215 1.048-.804 1.051-1.468.003-.663-.413-1.256-1.038-1.477zm-164.53-72.911c-1.597.812-3.485.812-5.081 0l-15.961-9.235c-.625-.221-1.041-.814-1.038-1.478.003-.663.425-1.252 1.051-1.468l4.921-2.838c1.59-.821 3.478-.821 5.068 0l15.961 9.235c1.33.813 1.396 2.133 0 2.932zm2.767 4.531 4.948 2.852c1.591.814 3.476.814 5.067 0l4.922-2.838c.625-.218 1.044-.809 1.044-1.473s-.419-1.254-1.044-1.473l-4.988-2.838c-1.597-.812-3.484-.812-5.081 0l-4.921 2.838c-.612.235-1.012.829-1 1.485s.433 1.235 1.053 1.447zm17.689 10.235-4.947-2.865h-.027c-.615-.226-1.022-.814-1.019-1.471.003-.656.415-1.24 1.032-1.461l4.922-2.839c1.596-.812 3.484-.812 5.08 0l4.948 2.866c.629.211 1.053.801 1.053 1.466 0 .664-.424 1.255-1.053 1.466l-4.921 2.838c-1.591.814-3.476.814-5.068 0zm7.795 4.505 4.948 2.865c1.598.805 3.482.805 5.081 0l4.907-2.852c.63-.211 1.054-.801 1.054-1.466s-.424-1.255-1.054-1.466l-4.947-2.865c-1.599-.806-3.483-.806-5.081 0l-4.908 2.852c-.631.205-1.061.791-1.067 1.456s.413 1.259 1.04 1.476zm27.679 7.396-4.908 2.852h-.027c-1.591.797-3.463.797-5.054 0l-4.948-2.865c-.629-.211-1.053-.802-1.053-1.466 0-.665.424-1.255 1.053-1.466l4.922-2.852c1.593-.806 3.474-.806 5.067 0l4.948 2.865c1.397.813 1.41 2.132 0 2.932zm7.834 10.222 4.921-2.852c1.33-.8 1.33-2.119 0-2.932l-4.948-2.866c-1.591-.814-3.476-.814-5.067 0l-4.922 2.839c-.629.211-1.053.801-1.053 1.466s.424 1.255 1.053 1.466l4.882 2.865c1.601.825 3.501.83 5.107.014zm17.663 4.531-4.921 2.838h-.027c-1.584.805-3.456.805-5.041 0l-4.961-2.852c-.625-.218-1.045-.809-1.045-1.472 0-.664.42-1.255 1.045-1.473l4.921-2.839c1.596-.818 3.486-.818 5.081 0l4.948 2.852c.626.219 1.045.809 1.045 1.473s-.419 1.255-1.045 1.473zm7.821 10.208 4.922-2.839c.629-.211 1.053-.801 1.053-1.466 0-.664-.424-1.254-1.053-1.465l-4.948-2.866c-1.597-.812-3.484-.812-5.081 0l-4.921 2.852c-1.397.8-1.33 2.119 0 2.932l4.948 2.865c1.59.806 3.468.801 5.054-.013zm17.664 4.531-4.921 2.852h-.027c-1.614.824-3.525.819-5.134-.013l-4.948-2.866c-.629-.211-1.053-.801-1.053-1.466 0-.664.424-1.254 1.053-1.465l5.001-2.839c1.598-.806 3.483-.806 5.081 0l4.948 2.865c.629.211 1.053.801 1.053 1.466s-.424 1.255-1.053 1.466zm7.834 10.222 4.908-2.852c.629-.211 1.053-.802 1.053-1.466 0-.665-.424-1.255-1.053-1.466l-4.948-2.865c-1.594-.806-3.474-.806-5.068 0l-4.921 2.851c-.629.211-1.053.802-1.053 1.466 0 .665.424 1.255 1.053 1.466l4.948 2.866c1.591.796 3.463.796 5.054 0zm7.608 7.356-4.948-2.865h.026c-.64-.202-1.077-.795-1.08-1.468s.428-1.27 1.067-1.478l4.921-2.838c1.592-.814 3.476-.814 5.068 0l4.948 2.865c1.33.813 1.396 2.132 0 2.932l-4.922 2.852c-1.596.812-3.484.812-5.08 0zm30.365 6.024-12.596-7.277c-1.591-.814-3.476-.814-5.067 0l-4.922 2.839c-.625.218-1.044.809-1.044 1.472 0 .664.419 1.255 1.044 1.473l12.596 7.276c1.594.806 3.474.806 5.068 0l4.921-2.851c.631-.206 1.06-.792 1.067-1.457.006-.665-.413-1.259-1.04-1.475zm-157.108-68.686c-1.801.918-3.932.918-5.733 0l-22.678-13.114c-.716-.235-1.2-.904-1.2-1.659s.484-1.424 1.2-1.659l4.256-2.466c1.801-.918 3.932-.918 5.733 0l22.678 13.127c1.569.92 1.583 2.399 0 3.305zm7.01 7.369c1.802.913 3.93.913 5.732 0l4.27-2.465c.716-.235 1.2-.904 1.2-1.659s-.484-1.425-1.2-1.659l-4.283-2.479c-1.801-.919-3.932-.919-5.733 0l-4.269 2.465c-.716.235-1.201.905-1.201 1.659 0 .755.485 1.425 1.201 1.66zm18.473 7.37c-1.802.912-3.93.912-5.732 0l-4.283-2.479c-.67-.256-1.115-.898-1.121-1.616-.006-.719.428-1.368 1.094-1.635l4.297-2.533c1.802-.912 3.93-.912 5.732 0l4.283 2.479c.716.235 1.2.905 1.2 1.659 0 .755-.484 1.425-1.2 1.66zm2.728 4.891 4.283 2.479c1.801.918 3.932.918 5.732 0l4.27-2.466c.716-.235 1.2-.904 1.2-1.659s-.484-1.424-1.2-1.659l-4.296-2.479c-1.803-.912-3.93-.912-5.733 0l-4.256 2.466c-.749.213-1.266.899-1.266 1.679s.517 1.465 1.266 1.679zm22.77 9.848c-1.8.919-3.931.919-5.732 0l-4.296-2.478c-.728-.226-1.225-.898-1.228-1.661s.489-1.44 1.214-1.671l4.27-2.452c1.802-.912 3.93-.912 5.733 0l4.296 2.479c.716.234 1.2.904 1.2 1.659s-.484 1.424-1.2 1.659zm7.023 7.343c1.801.919 3.932.919 5.733 0l4.256-2.465c1.583-.906 1.569-2.386 0-3.305l-4.296-2.492c-1.801-.919-3.932-.919-5.733 0l-4.256 2.465c-.706.241-1.181.906-1.181 1.653s.475 1.411 1.181 1.652zm12.742 7.37-4.296-2.479-.013.04c-.748-.216-1.262-.904-1.259-1.684s.522-1.464 1.272-1.674l4.27-2.465c1.801-.919 3.932-.919 5.732 0l4.283 2.478c.716.235 1.201.905 1.201 1.659 0 .755-.485 1.425-1.201 1.66l-4.256 2.465c-1.802.912-3.93.912-5.733 0zm8.46 4.891 4.283 2.479c1.802.912 3.93.912 5.732 0l4.27-2.466c.716-.234 1.2-.904 1.2-1.659s-.484-1.424-1.2-1.659l-4.283-2.479c-1.802-.912-3.93-.912-5.732 0l-4.27 2.466c-.75.21-1.269.894-1.272 1.674s.511 1.468 1.259 1.684zm17.025 9.848-4.283-2.478-.013.04c-.748-.217-1.262-.904-1.259-1.685.003-.78.522-1.463 1.272-1.674l4.27-2.465c1.802-.912 3.93-.912 5.732 0l4.283 2.479c.716.235 1.201.904 1.201 1.659s-.485 1.424-1.201 1.659l-4.269 2.465c-1.801.919-3.932.919-5.733 0zm8.459 4.891 4.283 2.492c1.802.913 3.93.913 5.732 0l4.27-2.465c.716-.235 1.2-.904 1.2-1.659s-.484-1.424-1.2-1.659l-4.296-2.479c-1.803-.912-3.93-.912-5.733 0l-4.256 2.465c-.739.219-1.247.896-1.25 1.668-.003.771.5 1.453 1.237 1.677zm17.039 9.862-4.296-2.479-.014.04c-.748-.216-1.262-.904-1.259-1.684s.523-1.464 1.273-1.674l4.256-2.465c1.801-.919 3.932-.919 5.732 0l4.297 2.492c1.569.919 1.582 2.398 0 3.305l-4.257 2.465c-1.801.919-3.931.919-5.732 0zm22.996 1.759-4.296-2.465c-1.802-.912-3.93-.912-5.733 0l-4.269 2.465c-.716.235-1.2.905-1.2 1.659 0 .755.484 1.425 1.2 1.66l4.283 2.478c1.802.913 3.93.913 5.732 0l4.27-2.465c.696-.247 1.161-.906 1.161-1.646s-.465-1.399-1.161-1.646zm-174.878-87.543 9.949 5.757-.08.04c.676.26 1.121.912 1.118 1.637-.003.726-.453 1.374-1.131 1.628l-4.257 2.466c-1.8.918-3.931.918-5.732 0l-9.949-5.758c-.716-.234-1.2-.904-1.2-1.659s.484-1.424 1.2-1.659l4.349-2.452c1.803-.912 3.93-.912 5.733 0zm22.678 13.113-4.297-2.478c-1.8-.919-3.931-.919-5.732 0l-4.256 2.465c-.716.235-1.201.904-1.201 1.659s.485 1.425 1.201 1.66l4.296 2.478c1.802.912 3.93.912 5.732 0l4.257-2.465c.716-.235 1.2-.904 1.2-1.659s-.484-1.425-1.2-1.66zm8.459 4.891 4.283 2.479-.067.053c.704.247 1.174.915 1.168 1.663-.006.747-.486 1.407-1.194 1.642l-4.257 2.466c-1.802.912-3.93.912-5.732 0l-4.203-2.519c-.716-.235-1.201-.904-1.201-1.659s.485-1.424 1.201-1.659l4.269-2.466c1.801-.918 3.932-.918 5.733 0zm93.491 54.08-80.749-46.71c-1.802-.912-3.93-.912-5.733 0l-4.269 2.466c-.716.234-1.2.904-1.2 1.659s.484 1.424 1.2 1.659l80.749 46.71c1.801.919 3.932.919 5.732 0l4.27-2.465c.672-.271 1.107-.93 1.092-1.656-.014-.726-.476-1.366-1.159-1.609zm8.446 4.998 4.296 2.385-.066.054c1.596.919 1.596 2.398.053 3.358l-4.27 2.465c-1.801.919-3.931.919-5.732 0l-4.283-2.492c-.706-.241-1.181-.905-1.181-1.652s.475-1.412 1.181-1.653l4.269-2.465c1.801-.919 3.932-.919 5.733 0zm17.052 9.755-4.296-2.479c-1.801-.918-3.932-.918-5.733 0l-4.256 2.466c-.716.235-1.201.904-1.201 1.659s.485 1.424 1.201 1.659l4.283 2.479c1.802.912 3.93.912 5.732 0l4.27-2.466c.672-.27 1.107-.929 1.092-1.655s-.476-1.367-1.159-1.61zm8.711 5.037 4.297 2.479-.067.054c.683.242 1.144.883 1.159 1.609s-.42 1.385-1.092 1.656l-4.257 2.465c-1.801.919-3.931.919-5.732 0l-4.296-2.492c-1.57-.92-1.583-2.399 0-3.305l4.256-2.466c1.801-.918 3.932-.918 5.732 0z" fill="#f6f8fc"/><path d="m449.932 337.412-211.657-122.541c-7.282-4.209-13.171-15.531-13.171-25.307v-163.9784c0-9.7367 5.889-14.2121 13.171-10.0031l211.657 122.5675c7.269 4.222 13.172 15.531 13.172 25.307v163.965c-.04 9.723-5.943 14.212-13.172 9.99z" fill="url(#m)"/><path d="m453.017 328.461-210.396-121.054c-5.883-3.719-9.517-11.157-9.517-18.781v-164.2461c-.015-.8454.428-1.6332 1.159-2.0601.732-.4269 1.637-.4264 2.368.0013l.426.2524 210.542 121.1465c6.989 3.984 9.505 11.17 9.505 18.781v163.981c.002.899-.477 1.732-1.258 2.182-.781.449-1.743.448-2.523-.004z" fill="url(#n)"/></g><path d="m309.737 156.936c0 22.395 15.833 49.782 35.295 61.051 5.327 3.087 10.594 4.716 15.23 4.716 11.005 0 17.842-9.044 17.842-23.603 0-22.395-15.833-49.782-35.294-61.051-5.327-3.087-10.594-4.716-15.23-4.716-11.005 0-17.843 9.042-17.843 23.603z" fill="#28036e" opacity=".155497"/><path clip-rule="evenodd" d="m335.417 197.864c.102-.028.203-.068.302-.121l16.876-9.104c1.297-.701 1.297-3.295 0-5.06l-16.876-22.966c-.751-1.022-1.642-1.39-2.352-1.2-.726.195-1.263.976-1.263 2.246v32.071c0 2.344 1.832 4.53 3.313 4.134z" fill="url(#p)" fill-rule="evenodd"/><path clip-rule="evenodd" d="m337.975 220.542c-18.478-10.725-33.508-36.796-33.508-58.118 0-15.262 7.812-25.124 19.905-25.124 4.905 0 10.148 1.6 15.587 4.758 18.477 10.725 33.508 36.796 33.508 58.118 0 15.264-7.812 25.124-19.905 25.124-4.907-.001-10.15-1.601-15.587-4.758zm-29.539-58.118c0 20.051 14.141 44.572 31.523 54.66 4.759 2.764 9.462 4.224 13.602 4.224 9.829 0 15.936-8.097 15.936-21.132 0-20.051-14.141-44.572-31.523-54.66-4.759-2.764-9.462-4.224-13.603-4.224-9.829-.001-15.935 8.097-15.935 21.132z" fill="url(#q)" fill-rule="evenodd"/><path clip-rule="evenodd" d="m455.854 134.745-212.449-122.2001c-2.269-1.5386-5.12-1.9544-7.737-1.1282-.279.1062-6.298 3.5969-6.564 3.7429 2.25-1.0884 5.113-.8893 8.229.9025l212.475 122.1339c7.298 4.207 13.223 15.475 13.223 25.217v163.385c0 6.052-2.303 10.061-5.819 11.202.417-.018.819-.157 1.159-.398.173-.093 6.511-3.876 6.658-3.982 2.503-1.752 4.075-5.309 4.075-10.339v-163.425c-.027-9.702-5.98-20.97-13.25-25.111z" fill="url(#r)" fill-rule="evenodd"/></svg>